<svg width="51" height="50" viewBox="0 0 51 50" fill="none" xmlns="http://www.w3.org/2000/svg">
<rect width="51" height="50" rx="25" fill="white"/>
<g clip-path="url(#clip0_2340_2191)">
<path fill-rule="evenodd" clip-rule="evenodd" d="M29.0618 15.0151L25.5445 9L10.0703 35.5162H17.1982C19.4292 35.5162 21.4922 34.3309 22.6157 32.4034L29.066 21.3387C30.2054 19.3844 30.2037 16.9679 29.0618 15.0151Z" fill="#D1EDD4"/>
<path fill-rule="evenodd" clip-rule="evenodd" d="M25.6223 27.4297H18.4056C16.1805 27.4297 14.1221 28.6087 12.9964 30.5279L10.0703 35.5167H17.287C19.512 35.5167 21.5705 34.3377 22.6962 32.4185L25.6223 27.4297Z" fill="url(#paint0_linear_2340_2191)"/>
<path fill-rule="evenodd" clip-rule="evenodd" d="M22.0295 15.0151L25.5467 9L41.021 35.5162H33.8931C31.6621 35.5162 29.5991 34.3309 28.4755 32.4034L22.0252 21.3387C20.8859 19.3844 20.8875 16.9679 22.0295 15.0151Z" fill="url(#paint1_linear_2340_2191)"/>
</g>
<defs>
<linearGradient id="paint0_linear_2340_2191" x1="25.6223" y1="30.3799" x2="12.7663" y2="37.065" gradientUnits="userSpaceOnUse">
<stop stop-color="#1B8F29"/>
<stop offset="1" stop-color="#0FBC23"/>
</linearGradient>
<linearGradient id="paint1_linear_2340_2191" x1="28.0776" y1="9" x2="42.4315" y2="32.3113" gradientUnits="userSpaceOnUse">
<stop stop-color="#BFECC4"/>
<stop offset="1" stop-color="#2E7636"/>
</linearGradient>
<clipPath id="clip0_2340_2191">
<rect width="31" height="28" fill="white" transform="translate(10 9)"/>
</clipPath>
</defs>
</svg>
